<svg xmlns="http://www.w3.org/2000/svg" viewBox="0 0 1000 303.46"><path d="M970.26,167c0,25.95-21.4,28-28,28s-28-2-28-28V84.33h-29.8V167c0,34,23.75,57.77,57.76,57.77a65.72,65.72,0,0,0,16.54-2.09,55.39,55.39,0,0,0,14.46-37.3V167.16Z" fill="#00cd92"/><path d="M621 34.93a17 17 0 1 0 17 17 16.81 16.81 0 0 0-17-17zM550.64 167c0 25.95-21.4 28-28 28s-28-2-28-28V84.33h-29.8V167c0 34 23.75 57.77 57.77 57.77S580.44 201 580.44 167V84.33h-29.8zm55.47-82.67h29.8v137.28h-29.8zm58.23-32.34h29.8V221.6h-29.8zM714 152.54a72.41 72.41 0 1 0 144.81 0V52H829v42.1a72.31 72.31 0 0 0-115 58.45zm29.8 0a42.6 42.6 0 1 1 42.6 42.6 42.64 42.64 0 0 1-42.61-42.6zM380.51 80.31a72 72 0 0 0-47.7 13.78V52H303v169.85h19a10.77 10.77 0 0 0 10.77-10.77h0a72.4 72.4 0 0 0 114.88-62.92c-2.08-35.98-31.19-65.36-67.14-67.85zm-5.1 114.83a42.6 42.6 0 1 1 42.6-42.6 42.65 42.65 0 0 1-42.6 42.6z" fill="#1b2842"/><path d="M970.19,185.35A55.56,55.56,0,0,1,864.48,209.4a98.16,98.16,0,0,1-22.15,21.67A85.44,85.44,0,0,0,1000,185.35v-101H970.19Z" fill="#2fe0a7"/><path d="M320.93 265.81a7.76 7.76 0 0 0 3.9-6.89 8.9 8.9 0 0 0-9-8.8H303v31.93h13.55a8.93 8.93 0 0 0 9.07-8.76 8 8 0 0 0-4.69-7.48zm.43 7.3a5 5 0 0 1-5 5h-9.19V268h8.66c3.35 0 5.53 2 5.53 5.11zm-14.22-9v-10h8.44a5 5 0 0 1 5 5 4.92 4.92 0 0 1-5 5zm47.33 7.05a7.73 7.73 0 0 1-15.46 0v-21h-4.18V271a11.69 11.69 0 0 0 11.91 11.73A11.54 11.54 0 0 0 358.61 271v-20.88h-4.14zm15.11-21h4.18v31.89h-4.18zm19.83-.04h-4.09v31.97h18.37v-4h-14.28v-27.97zm32.51 0h-10v31.93h10a16 16 0 1 0 0-31.93zm0 28h-5.87v-24h5.87a12 12 0 0 1 0 24zm25.41-27.96h4.18v31.89h-4.18zm35.87 25.2a15.84 15.84 0 0 0-1-1.76l-14.9-23.48h-4.25v31.93h4.13v-24.91l.62 1.08 15.2 23.83h4.43v-31.84h-4.23zm31.91-7.23h7.27v7.1a11.78 11.78 0 0 1-9 3.53 12.7 12.7 0 0 1 0-25.39 12.71 12.71 0 0 1 9.6 4.11l.25.24 2.67-2.73-.21-.24a16.67 16.67 0 1 0-12.31 28 16.81 16.81 0 0 0 13.08-6.15l.07-.09v-12.3h-11.42zm35.37 13.92h20.4v-3.96h-16.27v-10.05h13.75v-3.96h-13.75v-10.01h16.27v-3.95h-20.4v31.93zm29.7 0h4.13v-14.01h13.83v-3.96h-13.83v-10.01h16.32v-3.95h-20.45v31.93zm28.94 0h4.14v-14.01h13.83v-3.96h-13.83v-10.01h16.31v-3.95h-20.45v31.93zm28.95-31.89h4.18v31.89h-4.18zm30.26 3.34a13.13 13.13 0 0 1 9.25 3.71l.25.25 2.54-2.75-.23-.23a16.61 16.61 0 1 0-11.81 28.23 16.31 16.31 0 0 0 11.59-4.84l.23-.23-2.63-2.79-.25.24a12.67 12.67 0 0 1-8.94 3.58c-7 0-12.34-5.46-12.34-12.7a12.27 12.27 0 0 1 12.34-12.47zm20.4-3.34h4.18v31.89h-4.18zm15.74 31.89h20.4v-3.96H708.6v-10.05h13.75v-3.96H708.6v-10.01h16.27v-3.95h-20.4v31.93zm49.82-6.69a15.77 15.77 0 0 0-1-1.76l-14.91-23.48h-4.24v31.93h4.13v-24.91l.62 1.08 15.13 23.83h4.42v-31.84h-4.18zm30.26-21.86a13.11 13.11 0 0 1 9.25 3.71l.25.25 2.54-2.75-.22-.23a16.61 16.61 0 1 0-11.82 28.23 16.31 16.31 0 0 0 11.59-4.84l.23-.23-2.63-2.79-.25.24a12.65 12.65 0 0 1-8.94 3.58c-7 0-12.34-5.46-12.34-12.7a12.27 12.27 0 0 1 12.34-12.47zm38.73-3.38l-8.35 14.27-.17.32a3.53 3.53 0 0 0-.17-.33l-8.35-14.26h-4.73l11.16 19.14v12.79h4.18v-12.79L828 250.12z" fill="#768ea5"/><path d="M92.85,70.22l21.7-22.12a52.58,52.58,0,0,1,74.36,74.36l-9,9L203,154.64l9-9A85.32,85.32,0,0,0,91.4,25L25,91.4Z" fill="#72eebf"/><path d="M203 148.82L179.89 172l9 9a52.58 52.58 0 0 1-74.36 74.36l-24.82-24.84L25 212.06l66.4 66.45a85.32 85.32 0 1 0 120.66-120.66z" fill="#00cd92"/><path d="M182.79 128.58L145.61 91.4A85.32 85.32 0 1 0 85.28 237a85.79 85.79 0 0 0 10.25-.69 84.8 84.8 0 0 0 50.08-24.27L206 151.73zm-60.33 60.33a52.55 52.55 0 1 1 0-74.36l37.18 37.18z" fill="#2fe0a7"/></svg>